<?xml version="1.0" encoding="UTF-8"?>
<svg xmlns="http://www.w3.org/2000/svg" width="1200" height="700" viewBox="0 0 1200 700" role="img" aria-label="Product Images">
  <defs>
    <filter id="shadow" x="-10%" y="-10%" width="120%" height="130%">
      <feDropShadow dx="0" dy="8" stdDeviation="12" flood-color="#172033" flood-opacity="0.12"/>
    </filter>
    <linearGradient id="product" x1="0" y1="0" x2="1" y2="1">
      <stop offset="0" stop-color="#e8f3ff"/>
      <stop offset="1" stop-color="#f4e9ff"/>
    </linearGradient>
  </defs>
  <rect width="100%" height="100%" fill="#f5f7fb"/>
  <rect x="28" y="22" width="1144" height="656" rx="18" fill="#eef3f8" stroke="none" />
<text x="52" y="62" font-family="Inter, Arial, sans-serif" font-size="24" font-weight="900" fill="#172033" >Product Images</text>
<rect x="100" y="120" width="1000" height="520" rx="16" fill="#ffffff" stroke="#d9e0ea" /><text x="136" y="168" font-family="Inter, Arial, sans-serif" font-size="24" font-weight="900" fill="#172033" >Product Images</text><rect x="136" y="196" width="120" height="42" rx="8" fill="#2563eb" stroke="none" /><text x="152" y="222" font-family="Inter, Arial, sans-serif" font-size="14" font-weight="700" fill="#ffffff" >Upload ảnh</text>
<text x="136" y="286" font-family="Inter, Arial, sans-serif" font-size="18" font-weight="900" fill="#172033" >Gallery</text>
<rect x="136" y="314" width="100" height="76" rx="10" fill="url(#product)" stroke="#d7e2ef" /><text x="260" y="360" font-family="Inter, Arial, sans-serif" font-size="14" font-weight="900" fill="#087443" >Main</text><rect x="330" y="332" width="100" height="36" rx="8" fill="#344054" stroke="none" /><text x="346" y="355" font-family="Inter, Arial, sans-serif" font-size="14" font-weight="700" fill="#ffffff" >Set main</text><rect x="448" y="332" width="86" height="36" rx="8" fill="#dc2626" stroke="none" /><text x="464" y="355" font-family="Inter, Arial, sans-serif" font-size="14" font-weight="700" fill="#ffffff" >Delete</text>
<rect x="136" y="410" width="100" height="76" rx="10" fill="url(#product)" stroke="#d7e2ef" /><rect x="330" y="430" width="100" height="36" rx="8" fill="#344054" stroke="none" /><text x="346" y="453" font-family="Inter, Arial, sans-serif" font-size="14" font-weight="700" fill="#ffffff" >Set main</text><rect x="448" y="430" width="86" height="36" rx="8" fill="#dc2626" stroke="none" /><text x="464" y="453" font-family="Inter, Arial, sans-serif" font-size="14" font-weight="700" fill="#ffffff" >Delete</text>
<rect x="136" y="506" width="100" height="76" rx="10" fill="url(#product)" stroke="#d7e2ef" /><rect x="330" y="526" width="100" height="36" rx="8" fill="#344054" stroke="none" /><text x="346" y="549" font-family="Inter, Arial, sans-serif" font-size="14" font-weight="700" fill="#ffffff" >Set main</text><rect x="448" y="526" width="86" height="36" rx="8" fill="#dc2626" stroke="none" /><text x="464" y="549" font-family="Inter, Arial, sans-serif" font-size="14" font-weight="700" fill="#ffffff" >Delete</text>
<text x="640" y="360" font-family="Inter, Arial, sans-serif" font-size="16" font-weight="700" fill="#667085" >Kéo thả để sắp xếp thứ tự ảnh</text><rect x="640" y="402" width="120" height="42" rx="8" fill="#2563eb" stroke="none" /><text x="656" y="428" font-family="Inter, Arial, sans-serif" font-size="14" font-weight="700" fill="#ffffff" >Lưu thứ tự</text>
</svg>
